PathFileType	4	(X/Y/Z)	C:/Users/opensim2020/Desktop/walking_exp_matlab/subject03_walking07_straight_02.trc	
DataRate	CameraRate	NumFrames	NumMarkers	Units	OrigDataRate	OrigDataStartFrame	OrigNumFrames	
100.00	100.00	9	46	mm	100.00	1593	252	
Frame#	Time	LFHD			RFHD			LBHD			RBHD			C7			T10			CLAV			STRN			RBAK			LSHO			LUPA			LELB			LFRM			LWRA			LWRB			LFIN			RSHO			RUPA			RELB			RFRM			RWRA			RWRB			RFIN			LASI			RASI			LPSI			RPSI			LTHI			LKNE			LTIB			LANK			LHEE			LTOE			RTHI			RKNE			RTIB			RANK			RHEE			RTOE			*39			*40			*41			*42			*43			*44			*45			
		X1	Y1	Z1	X2	Y2	Z2	X3	Y3	Z3	X4	Y4	Z4	X5	Y5	Z5	X6	Y6	Z6	X7	Y7	Z7	X8	Y8	Z8	X9	Y9	Z9	X10	Y10	Z10	X11	Y11	Z11	X12	Y12	Z12	X13	Y13	Z13	X14	Y14	Z14	X15	Y15	Z15	X16	Y16	Z16	X17	Y17	Z17	X18	Y18	Z18	X19	Y19	Z19	X20	Y20	Z20	X21	Y21	Z21	X22	Y22	Z22	X23	Y23	Z23	X24	Y24	Z24	X25	Y25	Z25	X26	Y26	Z26	X27	Y27	Z27	X28	Y28	Z28	X29	Y29	Z29	X30	Y30	Z30	X31	Y31	Z31	X32	Y32	Z32	X33	Y33	Z33	X34	Y34	Z34	X35	Y35	Z35	X36	Y36	Z36	X37	Y37	Z37	X38	Y38	Z38	X39	Y39	Z39	X40	Y40	Z40	X41	Y41	Z41	X42	Y42	Z42	X43	Y43	Z43	X44	Y44	Z44	X45	Y45	Z45	X46	Y46	Z46	

127	1.260	-930.08795	-103.74017	1611.63489	-1062.05835	-89.84009	1620.41187	-921.88605	27.51286	1580.02234	-1052.38745	36.43677	1587.82642	-979.68103	74.32555	1419.38696	-982.83917	111.16078	1105.00513	-992.35107	-45.41444	1341.29077	-991.27631	-87.60368	1177.17822	-1073.56238	138.33214	1244.60205	-833.63690	-16.28247	1377.18359	-760.82654	-40.98190	1184.12915	-751.73053	-72.14378	1064.73877	-761.96313	-122.86247	945.32043	-798.95917	-156.14423	833.20691	-743.45337	-148.09816	835.37823	-758.05402	-182.79883	760.53241	-1147.39648	13.55231	1367.05200	-1219.42896	13.25493	1144.07751	-1231.73010	-5.36074	1032.41919	-1234.07251	-24.92473	896.89563	-1199.60474	-57.52282	802.16327	-1243.34851	-26.19391	796.29993	-1232.56067	-50.56837	725.33759	-875.96002	-64.17860	945.49878	-1113.17053	-49.32504	941.82739	-918.44977	100.28915	965.25464	-1067.01050	108.40725	965.40692	-839.64844	-11.31049	642.44318	-880.54541	-13.90966	465.01392	-879.62805	43.08369	276.15045	-923.07373	65.58337	66.48375	-958.04791	107.85855	32.02848	-954.92010	-85.62956	29.84452	-1159.46753	-57.07664	646.19263	-1137.38940	-124.03278	478.34555	-1132.72876	-8.25145	326.95178	-1083.20715	121.17280	157.19835	-1026.52454	172.59482	151.12737	-1076.18408	26.77105	52.62448																					 
128	1.270	-930.60638	-112.93367	1611.03381	-1062.55774	-98.92774	1619.69629	-922.15680	18.35312	1579.82263	-1052.68689	27.49706	1587.39600	-979.75909	65.45255	1419.04150	-982.53107	102.54741	1104.60205	-992.54016	-54.21585	1340.80078	-991.12213	-96.25919	1176.69775	-1073.24036	129.75270	1244.12939	-833.91736	-25.26256	1377.09021	-760.57416	-51.60899	1184.71313	-751.34540	-84.71101	1065.84607	-762.01971	-137.96490	947.65863	-799.55219	-173.59268	836.37335	-744.08630	-165.54755	838.27094	-758.65698	-201.92108	764.31445	-1147.50854	5.05871	1366.28589	-1219.41284	6.72116	1143.38110	-1231.85413	-10.77744	1031.58667	-1234.13123	-29.36873	895.90356	-1199.91943	-61.63765	800.98877	-1243.21082	-29.86317	795.30042	-1232.77283	-53.80494	724.26953	-875.50128	-72.81037	944.95947	-1112.87952	-58.26507	941.43030	-918.32483	91.80116	964.52356	-1066.88672	99.67167	964.56293	-839.92615	-18.18761	641.79303	-880.51874	-18.48510	464.49329	-879.65137	40.40574	276.19653	-923.24023	65.19969	66.72594	-958.37213	107.41615	32.56663	-955.08258	-85.89285	29.78869	-1159.07214	-69.68941	646.86597	-1136.41467	-139.19501	480.10498	-1131.87488	-28.83607	324.05142	-1082.38708	93.87347	149.16774	-1025.94690	145.21704	140.49991	-1075.07141	-5.90985	50.04332																					 
129	1.280	-931.16833	-122.18934	1610.43384	-1063.07898	-107.98319	1618.91516	-922.47357	9.20310	1579.49036	-1052.98438	18.45714	1586.90344	-979.88000	56.56173	1418.55615	-982.30426	93.88884	1104.05896	-992.76050	-62.99513	1340.19177	-991.05042	-104.91205	1176.08398	-1072.89746	121.13869	1243.48779	-834.24017	-34.29501	1376.88013	-760.42462	-62.21093	1185.09534	-750.94824	-96.85518	1066.81201	-762.02228	-152.87973	949.97394	-800.10645	-191.10909	839.59149	-744.70911	-182.68291	841.09436	-759.41547	-220.75420	767.97388	-1147.65674	-3.41807	1365.57239	-1219.46155	0.06057	1142.53455	-1232.03064	-16.33087	1030.62927	-1234.19263	-33.90678	894.81146	-1200.08081	-65.77898	799.73328	-1243.11584	-33.59227	794.26624	-1232.82983	-57.23299	723.11139	-875.04938	-81.35818	944.41162	-1112.67920	-67.15430	940.94171	-918.22253	83.31529	963.79639	-1066.73572	90.93517	963.66217	-840.00415	-24.71282	641.37982	-880.46375	-22.88901	463.97864	-879.69171	37.81565	276.19574	-923.40729	64.79639	67.01702	-958.61108	107.37892	33.05315	-954.76263	-86.04577	29.83274	-1158.75281	-81.77558	647.44519	-1135.58704	-153.70309	481.69623	-1131.01965	-48.99786	321.22873	-1081.56079	65.76256	140.79066	-1025.17542	116.33572	129.30157	-1074.23303	-39.19042	47.60434				-974.83978	-41.32227	1679.16589															 
130	1.290	-931.77112	-131.43214	1609.70166	-1063.68823	-117.08751	1618.09900	-922.86475	0.07629	1579.02502	-1053.35669	9.44926	1586.33081	-980.09857	47.75142	1417.99731	-982.05719	85.23953	1103.42126	-993.00854	-71.81344	1339.55640	-991.07281	-113.70737	1175.42078	-1072.61426	112.54731	1242.70874	-834.59985	-43.34318	1376.51685	-760.34406	-72.98289	1185.39038	-750.53320	-109.01222	1067.66296	-762.05298	-167.39226	952.04407	-800.63306	-208.65089	842.97174	-745.40002	-199.51328	843.77332	-760.24066	-239.15233	771.53186	-1147.90173	-11.99672	1364.69092	-1219.53040	-6.71197	1141.59717	-1232.20349	-22.05569	1029.59485	-1234.17981	-38.60690	893.65588	-1200.23364	-70.18187	798.47742	-1242.93726	-37.52137	793.05884	-1232.80347	-60.72521	721.83295	-874.47107	-90.06221	943.74310	-1112.44507	-76.12065	940.48114	-918.29498	74.85143	963.06396	-1066.61462	82.15334	962.68323	-839.79608	-31.39797	640.75079	-880.46033	-27.23495	463.45935	-879.68744	35.21486	276.22235	-923.65509	64.46020	67.31831	-959.02631	107.08367	33.31438	-954.72949	-86.19575	29.77759	-1158.58374	-93.33098	647.65491	-1135.05933	-167.64075	483.15945	-1130.57837	-69.24272	318.10132	-1080.54565	37.37357	132.60667	-1023.85181	87.28661	118.51127	-1073.70410	-72.66559	45.32428				-981.90021	-49.61180	1680.63062															 
131	1.300	-932.37646	-140.57544	1608.92712	-1064.22485	-126.12480	1617.18530	-923.34387	-9.06318	1578.47937	-1053.81104	0.38411	1585.67627	-980.23297	38.78330	1417.36255	-981.91760	76.35445	1102.68835	-993.26105	-80.64453	1338.82471	-991.10645	-122.41564	1174.67786	-1072.34326	103.82352	1241.78882	-834.95892	-52.41102	1376.01672	-760.29999	-83.66598	1185.46265	-750.20734	-120.91194	1068.30151	-762.23804	-181.91426	953.90271	-801.26575	-225.68520	846.13641	-746.12592	-216.01202	846.32721	-761.19397	-257.24982	774.98950	-1148.17468	-20.53315	1363.81812	-1219.63586	-13.65708	1140.54468	-1232.35669	-27.99647	1028.45667	-1234.21130	-43.53443	892.41187	-1200.25500	-74.57420	796.97919	-1242.75134	-41.69825	791.78131	-1232.63123	-64.50205	720.40741	-874.01129	-98.55370	943.02832	-1112.25146	-85.07590	939.97711	-918.20862	66.13962	962.24823	-1066.53772	73.27406	961.74384	-839.70905	-37.50938	640.21594	-880.46722	-31.67152	462.94702	-879.82062	32.51490	276.20114	-923.90332	64.13205	67.66666	-959.18744	107.07653	33.84251	-954.73743	-86.36514	29.70352	-1159.04797	-105.26763	648.04773	-1134.53015	-180.75351	484.34030	-1130.00354	-89.02085	314.97562	-1079.69739	8.16091	124.31693	-1022.69800	57.16716	107.62566	-1073.55396	-106.36934	43.29815				-972.09906	-61.06205	1682.05310															 
132	1.310	-933.03162	-149.76939	1608.08740	-1064.89331	-135.22099	1616.23035	-923.76868	-18.29878	1577.81104	-1054.34546	-8.61185	1584.85767	-980.58746	29.93974	1416.57849	-981.82422	67.57278	1101.85266	-993.58478	-89.58778	1338.00623	-991.19849	-131.30524	1173.86426	-1072.13647	95.12988	1240.78992	-835.38269	-61.55259	1375.45728	-760.40063	-94.39885	1185.47351	-749.97864	-132.94562	1068.84802	-762.37543	-195.96814	955.68085	-801.91193	-242.34914	849.25842	-746.94891	-232.13470	848.67365	-762.25873	-274.95276	778.33173	-1148.47705	-29.14677	1362.67114	-1219.81702	-20.69287	1139.43323	-1232.48560	-34.11614	1027.24573	-1234.22766	-48.68179	891.08521	-1200.28088	-79.28028	795.60352	-1242.56091	-46.06607	790.44080	-1232.36609	-68.34950	718.95746	-873.70477	-106.72408	942.20172	-1111.97205	-94.18102	939.42810	-918.41187	57.60254	961.57104	-1066.56567	64.30238	960.84125	-840.13434	-43.82882	639.59180	-880.62579	-36.23040	462.40787	-879.92615	29.79604	276.15088	-924.15393	63.69422	68.03323	-959.41461	106.97095	34.28706	-954.43060	-86.36788	29.82629	-1159.09814	-116.35484	648.35272	-1134.19604	-193.14578	485.24188	-1129.55579	-108.45466	311.82614	-1078.96301	-21.54345	116.20718	-1021.64594	26.31705	96.92441	-1073.61328	-140.61868	41.31033				-972.84357	-70.88094	1683.08777															 
133	1.320	-933.70453	-158.95671	1607.15625	-1065.54871	-144.27583	1615.18787	-924.32764	-27.43241	1577.05566	-1054.81189	-17.72099	1583.93176	-980.86340	20.92727	1415.69043	-981.91632	58.60178	1100.94922	-993.97455	-98.49374	1337.10242	-991.28534	-140.30948	1172.98108	-1071.95190	86.28014	1239.72461	-835.82678	-70.71427	1374.75146	-760.48193	-105.21223	1185.50183	-749.87012	-144.80969	1069.27771	-762.51263	-209.86966	957.36438	-802.65936	-258.73019	852.31555	-747.83154	-248.01842	850.90320	-763.48584	-292.30753	781.57501	-1148.77942	-37.75500	1361.45789	-1220.00745	-27.90162	1138.22046	-1232.59937	-40.51237	1025.94287	-1234.20251	-54.03138	889.69409	-1200.17834	-84.04144	794.06152	-1242.35791	-50.72251	788.99530	-1232.01221	-72.51466	717.36584	-873.29767	-115.21001	941.25336	-1111.64832	-103.37155	938.67786	-918.47821	49.05699	960.91602	-1066.68372	55.29122	960.00610	-840.43665	-50.08305	638.90442	-880.91614	-40.83944	461.76746	-880.15771	27.18103	276.12540	-924.41309	63.25748	68.36891	-959.68701	106.85567	34.76407	-954.49408	-86.52501	29.73613	-1159.12061	-127.00629	648.47174	-1134.00903	-204.91248	485.79858	-1129.19910	-127.67163	308.62234	-1078.43567	-51.94399	108.36958	-1020.65302	-5.74395	86.57871	-1074.03894	-174.76721	40.04128				-977.08209	-78.38749	1676.22034															 
134	1.330	-934.44409	-168.09225	1606.24634	-1066.30481	-153.36069	1614.03406	-924.94739	-36.55576	1576.19263	-1055.41870	-26.74513	1582.91772	-981.14429	11.89156	1414.69055	-982.08838	49.61467	1099.98242	-994.39185	-107.52826	1336.10071	-991.39368	-149.45280	1172.03271	-1071.82214	77.38443	1238.54321	-836.28308	-79.90170	1373.97302	-760.73730	-115.95222	1185.31482	-749.93408	-156.65282	1069.65820	-762.86993	-223.59787	958.89252	-803.50037	-274.63187	855.18317	-748.83441	-263.41916	852.96179	-764.85565	-309.30341	784.70569	-1149.19080	-46.40873	1360.26062	-1220.32361	-35.17164	1136.86938	-1232.71069	-47.05574	1024.56323	-1234.10046	-59.67142	888.19708	-1199.89063	-88.95333	792.42596	-1242.15918	-55.58411	787.53540	-1231.57935	-76.78790	715.70514	-872.98193	-123.65946	940.22241	-1111.35620	-112.70821	937.80316	-918.77832	40.08615	960.03143	-1066.85632	46.21824	959.16815	-840.67065	-56.56950	638.16632	-881.23370	-45.44468	461.09421	-880.36346	24.58114	276.07187	-924.66400	63.08698	68.70305	-960.01337	106.78448	35.43828	-954.55316	-86.69652	29.72190	-1159.39099	-137.23021	648.21979	-1133.81152	-215.97247	485.99326	-1128.99146	-146.67038	305.38422	-1077.91504	-82.57050	100.96999	-1019.56116	-38.40116	76.90471	-1074.78796	-209.04788	39.16949																					 
135	1.340	-935.16943	-177.28699	1605.29077	-1067.02258	-162.45479	1612.89355	-925.56293	-45.75205	1575.28137	-1056.08923	-35.79334	1581.81238	-981.61505	2.76540	1413.61292	-982.38617	40.47388	1098.91931	-994.80664	-116.65450	1334.99792	-991.53461	-158.68297	1170.98193	-1071.74109	68.38112	1237.27710	-836.75891	-89.18966	1373.09973	-760.94635	-126.69820	1185.12915	-750.05298	-168.38254	1069.73438	-763.32648	-236.96022	960.26282	-804.46765	-290.14169	857.90631	-749.94202	-278.58841	854.89459	-766.34314	-325.86249	787.68671	-1149.59729	-55.13691	1358.95630	-1220.61072	-42.55381	1135.55396	-1232.80701	-53.82300	1023.13788	-1233.99048	-65.43990	886.71143	-1199.66406	-94.07492	790.78937	-1241.94226	-60.70058	786.06891	-1231.10596	-81.31664	714.02625	-872.77679	-132.31393	939.12665	-1111.12817	-122.13682	936.72412	-919.11981	31.34344	959.41852	-1067.19226	37.02456	958.31317	-840.94153	-63.09811	637.36383	-881.47528	-49.85664	460.45724	-880.50769	22.18020	276.12125	-924.90204	62.74342	69.06760	-960.31677	106.71707	36.08109	-954.61090	-87.06958	29.32518	-1159.52490	-146.87135	647.65009	-1133.71204	-226.44037	485.85434	-1128.86353	-165.40451	302.30658	-1077.71753	-113.69046	94.26299	-1019.21985	-71.21380	67.79921	-1075.85730	-243.30646	38.88934				-978.76416	-96.74622	1674.34814															 
